<?xml version="1.0" encoding="UTF-8" standalone="no"?>
<!DOCTYPE svg PUBLIC "-//W3C//DTD SVG 1.1//EN" "http://www.w3.org/Graphics/SVG/1.1/DTD/svg11.dtd">
<svg width="100%" height="100%" viewBox="0 0 9449 2363" version="1.1" xmlns="http://www.w3.org/2000/svg" xmlns:xlink="http://www.w3.org/1999/xlink" xml:space="preserve" xmlns:serif="http://www.serif.com/" style="fill-rule:evenodd;clip-rule:evenodd;stroke-linejoin:round;stroke-miterlimit:2;">
    <g transform="matrix(1.91296,0,0,1.8624,-108.176,-129.478)">
        <path d="M708.66,78.625C360.701,78.625 78.625,360.701 78.625,708.66C78.625,1056.62 360.701,1338.69 708.66,1338.69C1056.62,1338.69 1338.69,1056.62 1338.69,708.66C1338.69,360.701 1056.62,78.625 708.66,78.625ZM447.639,1064.57C393.349,1064.51 349.306,1020.34 349.368,965.968C349.43,911.444 393.547,867.321 448,867.454C501.659,867.588 546.488,910.303 546.362,966.221C546.236,1022.07 501.209,1064.63 447.639,1064.57ZM823.131,1064.62C778.297,1064.57 733.465,1064.57 688.631,1064.63C686.637,1064.63 685.784,1064.19 685.948,1062.06C686.377,1056.48 685.277,1050.95 685.353,1045.36C685.419,1040.38 684.641,1035.39 684.236,1030.4C683.533,1020.34 681.901,1010.41 679.99,1000.53C673.802,968.542 663.285,938.035 648.094,909.192C639.755,893.359 630.193,878.268 619.548,863.875C588.256,821.567 549.048,788.564 502.279,764.572C491.728,759.16 480.844,754.358 469.751,750.129C446.247,741.166 422.091,734.664 397.132,731.217C382.274,729.164 367.363,727.969 352.369,727.919C350.041,727.911 349.315,727.3 349.319,724.852C349.402,680.35 349.406,635.847 349.324,591.346C349.319,588.788 349.973,588.183 352.499,588.214C460.901,589.569 558.126,623.242 643.502,689.995C710.036,742.015 758.993,807.617 790.993,885.822C791.452,886.943 792.016,888.021 792.532,889.119C796.538,900.214 800.707,911.249 804.189,922.529C813.112,951.436 819.362,980.892 822.685,1010.98C824.562,1027.96 825.537,1044.99 825.758,1062.07C825.785,1064.22 825.118,1064.62 823.131,1064.62ZM1065.71,1064.6C1019.37,1064.55 973.029,1064.55 926.689,1064.61C924.697,1064.62 924.207,1064.06 924.204,1062.13C924.164,1044.16 923.385,1026.23 921.488,1008.36C920.695,1000.87 919.973,993.363 918.81,985.929C917.668,978.641 916.396,971.365 915.206,964.085C906.843,912.87 890.583,864.202 868.505,817.371C868.321,816.981 868.059,816.632 867.832,816.263C864.1,807.48 859.612,799.062 854.977,790.743C782.105,659.989 675.251,569.454 533.883,519.953C500.429,508.237 466,500.312 430.902,495.419C423.772,494.425 416.568,493.747 409.396,492.98C402.379,492.228 395.343,491.589 388.32,491.106C383.494,490.775 378.62,490.493 373.759,490.353C366.176,490.13 358.592,489.638 350.996,489.597C349.698,489.59 349.299,489.043 349.385,487.857C349.436,487.161 349.391,486.457 349.391,485.755C349.393,452.379 349.397,419.004 349.393,385.626C349.392,384.491 349.31,383.356 349.266,382.224C349.297,370.921 349.378,359.622 349.311,348.323C349.299,346.329 349.856,345.827 351.811,345.881C358.375,346.061 364.945,346.04 371.513,346.096C376.663,346.375 381.812,346.672 386.963,346.937C478.38,351.663 565.71,373.07 648.942,411.166C660.322,416.375 671.518,421.97 682.612,427.758C730.746,452.87 775.346,483.213 816.577,518.515C856.181,552.422 891.708,590.164 923.089,631.809C941.737,656.555 958.833,682.322 974.144,709.266C974.355,709.635 974.664,709.95 974.926,710.289C980.874,721.388 986.97,732.406 992.589,743.682C1020.13,798.922 1040.25,856.732 1052.85,917.162C1056.37,934.043 1059.36,951.017 1061.55,968.117C1062.89,978.55 1064.11,989.001 1064.95,999.5C1065.78,1009.93 1066.54,1020.36 1067.07,1030.81C1067.6,1041.31 1067.86,1051.8 1068.05,1062.3C1068.09,1064.2 1067.5,1064.6 1065.71,1064.6Z" style="fill:rgb(192,49,18);fill-rule:nonzero;"/>
    </g>
    <g transform="matrix(27.7192,0,0,27.7192,-17692.3,-16934.9)">
        <path d="M750.683,639.294L759.833,639.294L759.833,643.644L745.533,643.644L745.533,613.294L750.683,613.294L750.683,639.294Z" style="fill-rule:nonzero;stroke:white;stroke-width:0.75px;"/>
        <path d="M767.533,615.594C767.533,616.361 767.25,617.028 766.683,617.594C766.117,618.161 765.45,618.444 764.683,618.444C763.917,618.444 763.25,618.161 762.683,617.594C762.117,617.028 761.833,616.361 761.833,615.594C761.833,614.828 762.117,614.161 762.683,613.594C763.25,613.028 763.917,612.744 764.683,612.744C765.45,612.744 766.117,613.028 766.683,613.594C767.25,614.161 767.533,614.828 767.533,615.594ZM767.133,643.644L762.283,643.644L762.283,623.894L767.133,623.894L767.133,643.644Z" style="fill-rule:nonzero;stroke:white;stroke-width:0.75px;"/>
        <path d="M779.883,636.394L784.733,623.894L790.133,623.894L781.033,644.044L778.133,644.044L769.083,623.894L774.433,623.894L779.883,636.394Z" style="fill-rule:nonzero;stroke:white;stroke-width:0.75px;"/>
        <path d="M795.183,634.244C795.183,636.144 795.6,637.711 796.433,638.944C797.267,640.178 798.417,640.794 799.883,640.794C802.183,640.794 803.65,639.661 804.283,637.394L808.883,638.144C807.383,642.244 804.383,644.294 799.883,644.294C796.883,644.294 794.492,643.336 792.708,641.419C790.925,639.503 790.033,637.011 790.033,633.944C790.033,630.711 790.892,628.119 792.608,626.169C794.325,624.219 796.658,623.244 799.608,623.244C802.558,623.244 804.858,624.169 806.508,626.019C808.158,627.869 808.983,630.394 808.983,633.594L808.983,634.244L795.183,634.244ZM804.483,631.544C804.483,630.178 804.058,628.978 803.208,627.944C802.358,626.911 801.258,626.394 799.908,626.394C798.558,626.394 797.458,626.936 796.608,628.019C795.758,629.103 795.333,630.278 795.333,631.544L804.483,631.544Z" style="fill-rule:nonzero;stroke:white;stroke-width:0.75px;"/>
        <path d="M848.583,643.644L842.233,643.644L833.633,630.144L833.583,643.644L828.433,643.644L828.433,613.294L836.483,613.294C843.25,613.294 846.633,616.344 846.633,622.444C846.633,624.744 846.042,626.661 844.858,628.194C843.675,629.728 842.067,630.611 840.033,630.844L848.583,643.644ZM833.583,628.044L835.133,628.044C839.367,628.044 841.483,626.228 841.483,622.594C841.483,619.094 839.383,617.344 835.183,617.344L833.583,617.344L833.583,628.044Z" style="fill-rule:nonzero;stroke:white;stroke-width:0.75px;"/>
        <path d="M865.583,619.444C864.283,617.611 862.633,616.694 860.633,616.694C859.367,616.694 858.3,617.078 857.433,617.844C856.567,618.611 856.133,619.636 856.133,620.919C856.133,622.203 857.708,623.728 860.858,625.494C864.008,627.261 865.6,628.144 865.633,628.144C867.867,629.811 868.983,631.778 868.983,634.044C868.983,637.144 868.092,639.653 866.308,641.569C864.525,643.486 862.083,644.444 858.983,644.444C855.05,644.444 851.95,642.478 849.683,638.544L852.933,635.344C853.367,636.511 854.167,637.578 855.333,638.544C856.5,639.511 857.7,639.994 858.933,639.994C860.4,639.994 861.558,639.494 862.408,638.494C863.258,637.494 863.683,636.278 863.683,634.844C863.683,633.811 863.367,632.903 862.733,632.119C862.1,631.336 859.958,630.136 856.308,628.519C852.658,626.903 850.833,624.594 850.833,621.594C850.833,619.028 851.675,616.869 853.358,615.119C855.042,613.369 857.15,612.494 859.683,612.494C863.183,612.494 865.95,613.628 867.983,615.894L865.583,619.444Z" style="fill-rule:nonzero;stroke:white;stroke-width:0.75px;"/>
        <path d="M886.733,619.444C885.433,617.611 883.783,616.694 881.783,616.694C880.517,616.694 879.45,617.078 878.583,617.844C877.717,618.611 877.283,619.636 877.283,620.919C877.283,622.203 878.858,623.728 882.008,625.494C885.158,627.261 886.75,628.144 886.783,628.144C889.017,629.811 890.133,631.778 890.133,634.044C890.133,637.144 889.242,639.653 887.458,641.569C885.675,643.486 883.233,644.444 880.133,644.444C876.2,644.444 873.1,642.478 870.833,638.544L874.083,635.344C874.517,636.511 875.317,637.578 876.483,638.544C877.65,639.511 878.85,639.994 880.083,639.994C881.55,639.994 882.708,639.494 883.558,638.494C884.408,637.494 884.833,636.278 884.833,634.844C884.833,633.811 884.517,632.903 883.883,632.119C883.25,631.336 881.108,630.136 877.458,628.519C873.808,626.903 871.983,624.594 871.983,621.594C871.983,619.028 872.825,616.869 874.508,615.119C876.192,613.369 878.3,612.494 880.833,612.494C884.333,612.494 887.1,613.628 889.133,615.894L886.733,619.444Z" style="fill-rule:nonzero;stroke:white;stroke-width:0.75px;"/>
        <path d="M745.533,663.294L752.933,663.294C759,663.294 762.033,666.044 762.033,671.544C762.033,674.244 761.15,676.211 759.383,677.444C760.983,677.711 762.242,678.561 763.158,679.994C764.075,681.428 764.533,683.111 764.533,685.044C764.533,687.878 763.642,690.019 761.858,691.469C760.075,692.919 757.733,693.644 754.833,693.644L745.533,693.644L745.533,663.294ZM750.683,689.544L753.533,689.544C757.467,689.544 759.433,687.878 759.433,684.544C759.433,681.544 757.367,680.044 753.233,680.044L750.683,680.044L750.683,689.544ZM750.683,676.344L752.983,676.344C755.85,676.344 757.283,674.878 757.283,671.944C757.283,668.811 755.867,667.244 753.033,667.244L750.683,667.244L750.683,676.344Z" style="fill-rule:nonzero;stroke:white;stroke-width:0.75px;"/>
        <path d="M787.033,683.744C787.033,686.844 786.083,689.378 784.183,691.344C782.283,693.311 779.792,694.294 776.708,694.294C773.625,694.294 771.117,693.311 769.183,691.344C767.25,689.378 766.283,686.853 766.283,683.769C766.283,680.686 767.233,678.161 769.133,676.194C771.033,674.228 773.533,673.244 776.633,673.244C779.733,673.244 782.242,674.219 784.158,676.169C786.075,678.119 787.033,680.644 787.033,683.744ZM771.183,683.844C771.183,685.678 771.7,687.178 772.733,688.344C773.767,689.511 775.1,690.094 776.733,690.094C778.367,690.094 779.675,689.469 780.658,688.219C781.642,686.969 782.133,685.486 782.133,683.769C782.133,682.053 781.633,680.569 780.633,679.319C779.633,678.069 778.325,677.444 776.708,677.444C775.092,677.444 773.767,678.044 772.733,679.244C771.7,680.444 771.183,681.978 771.183,683.844Z" style="fill-rule:nonzero;stroke:white;stroke-width:0.75px;"/>
        <path d="M809.083,683.744C809.083,686.844 808.133,689.378 806.233,691.344C804.333,693.311 801.842,694.294 798.758,694.294C795.675,694.294 793.167,693.311 791.233,691.344C789.3,689.378 788.333,686.853 788.333,683.769C788.333,680.686 789.283,678.161 791.183,676.194C793.083,674.228 795.583,673.244 798.683,673.244C801.783,673.244 804.292,674.219 806.208,676.169C808.125,678.119 809.083,680.644 809.083,683.744ZM793.233,683.844C793.233,685.678 793.75,687.178 794.783,688.344C795.817,689.511 797.15,690.094 798.783,690.094C800.417,690.094 801.725,689.469 802.708,688.219C803.692,686.969 804.183,685.486 804.183,683.769C804.183,682.053 803.683,680.569 802.683,679.319C801.683,678.069 800.375,677.444 798.758,677.444C797.142,677.444 795.817,678.044 794.783,679.244C793.75,680.444 793.233,681.978 793.233,683.844Z" style="fill-rule:nonzero;stroke:white;stroke-width:0.75px;"/>
        <path d="M816.883,682.194L823.783,673.894L830.283,673.894L821.983,682.594L830.933,693.644L824.333,693.644L816.983,684.044L816.883,693.644L812.033,693.644L812.033,659.494L816.883,659.494L816.883,682.194Z" style="fill-rule:nonzero;stroke:white;stroke-width:0.75px;"/>
        <path d="M837.733,675.644C838.967,674.044 840.867,673.244 843.433,673.244C845.667,673.244 847.433,674.278 848.733,676.344C850,674.278 852.05,673.244 854.883,673.244C859.05,673.244 861.133,675.944 861.133,681.344L861.133,693.644L856.333,693.644L856.333,683.244C856.333,679.044 855.183,676.944 852.883,676.944C850.583,676.944 849.433,679.278 849.433,683.944L849.433,693.644L844.583,693.644L844.583,683.644C844.583,679.178 843.567,676.944 841.533,676.944C839,676.944 837.733,679.278 837.733,683.944L837.733,693.644L832.883,693.644L832.883,673.894L837.733,673.894L837.733,675.644Z" style="fill-rule:nonzero;stroke:white;stroke-width:0.75px;"/>
        <path d="M883.883,693.644L879.133,693.644L879.133,691.844C877.733,693.478 875.65,694.294 872.883,694.294C870.117,694.294 867.908,693.228 866.258,691.094C864.608,688.961 863.783,686.461 863.783,683.594C863.783,680.728 864.625,678.286 866.308,676.269C867.992,674.253 870.15,673.244 872.783,673.244C875.583,673.244 877.7,674.078 879.133,675.744L879.133,673.894L883.883,673.894L883.883,693.644ZM879.683,683.744C879.683,681.911 879.167,680.403 878.133,679.219C877.1,678.036 875.775,677.444 874.158,677.444C872.542,677.444 871.225,678.019 870.208,679.169C869.192,680.319 868.683,681.844 868.683,683.744C868.683,685.644 869.2,687.178 870.233,688.344C871.267,689.511 872.6,690.094 874.233,690.094C875.867,690.094 877.183,689.528 878.183,688.394C879.183,687.261 879.683,685.711 879.683,683.744Z" style="fill-rule:nonzero;stroke:white;stroke-width:0.75px;"/>
        <path d="M892.783,675.944C894.017,674.144 895.95,673.244 898.583,673.244C899.417,673.244 900.183,673.411 900.883,673.744L900.283,678.144C899.55,677.678 898.75,677.444 897.883,677.444C894.483,677.444 892.783,679.878 892.783,684.744L892.783,693.644L887.933,693.644L887.933,673.894L892.783,673.894L892.783,675.944Z" style="fill-rule:nonzero;stroke:white;stroke-width:0.75px;"/>
        <path d="M907.833,682.194L914.733,673.894L921.233,673.894L912.933,682.594L921.883,693.644L915.283,693.644L907.933,684.044L907.833,693.644L902.983,693.644L902.983,659.494L907.833,659.494L907.833,682.194Z" style="fill-rule:nonzero;stroke:white;stroke-width:0.75px;"/>
        <path d="M934.383,677.994C933.317,676.994 932.2,676.494 931.033,676.494C929.267,676.494 928.383,677.294 928.383,678.894C928.383,679.794 929.183,680.528 930.783,681.094C933.717,682.161 935.533,683.136 936.233,684.019C936.933,684.903 937.283,685.994 937.283,687.294C937.283,689.428 936.542,691.128 935.058,692.394C933.575,693.661 931.75,694.294 929.583,694.294C926.783,694.294 924.467,693.194 922.633,690.994L924.783,688.244C926.45,689.911 927.983,690.744 929.383,690.744C931.417,690.744 932.433,689.761 932.433,687.794C932.433,686.794 931.9,686.053 930.833,685.569C929.767,685.086 928.95,684.728 928.383,684.494C925.317,683.161 923.783,681.544 923.783,679.644C923.783,677.744 924.358,676.203 925.508,675.019C926.658,673.836 928.167,673.244 930.033,673.244C932.7,673.244 934.817,673.928 936.383,675.294L934.383,677.994Z" style="fill-rule:nonzero;stroke:white;stroke-width:0.75px;"/>
    </g>
</svg>
