<?xml version="1.0" encoding="UTF-8" standalone="no"?>
<!DOCTYPE svg PUBLIC "-//W3C//DTD SVG 1.1//EN" "http://www.w3.org/Graphics/SVG/1.1/DTD/svg11.dtd">
<svg width="100%" height="100%" viewBox="0 0 1261 1261" version="1.1" xmlns="http://www.w3.org/2000/svg" xmlns:xlink="http://www.w3.org/1999/xlink" xml:space="preserve" xmlns:serif="http://www.serif.com/" style="fill-rule:evenodd;clip-rule:evenodd;stroke-linejoin:round;stroke-miterlimit:2;">
    <g transform="matrix(1,0,0,1,-78.625,-78.625)">
        <path d="M708.66,78.625C360.701,78.625 78.625,360.701 78.625,708.66C78.625,1056.62 360.701,1338.69 708.66,1338.69C1056.62,1338.69 1338.69,1056.62 1338.69,708.66C1338.69,360.701 1056.62,78.625 708.66,78.625ZM447.639,1064.57C393.349,1064.51 349.306,1020.34 349.368,965.968C349.43,911.444 393.547,867.321 448,867.454C501.659,867.588 546.488,910.303 546.362,966.221C546.236,1022.07 501.209,1064.63 447.639,1064.57ZM823.131,1064.62C778.297,1064.57 733.465,1064.57 688.631,1064.63C686.637,1064.63 685.784,1064.19 685.948,1062.06C686.377,1056.48 685.277,1050.95 685.353,1045.36C685.419,1040.38 684.641,1035.39 684.236,1030.4C683.533,1020.34 681.901,1010.41 679.99,1000.53C673.802,968.542 663.285,938.035 648.094,909.192C639.755,893.359 630.193,878.268 619.548,863.875C588.256,821.567 549.048,788.564 502.279,764.572C491.728,759.16 480.844,754.358 469.751,750.129C446.247,741.166 422.091,734.664 397.132,731.217C382.274,729.164 367.363,727.969 352.369,727.919C350.041,727.911 349.315,727.3 349.319,724.852C349.402,680.35 349.406,635.847 349.324,591.346C349.319,588.788 349.973,588.183 352.499,588.214C460.901,589.569 558.126,623.242 643.502,689.995C710.036,742.015 758.993,807.617 790.993,885.822C791.452,886.943 792.016,888.021 792.532,889.119C796.538,900.214 800.707,911.249 804.189,922.529C813.112,951.436 819.362,980.892 822.685,1010.98C824.562,1027.96 825.537,1044.99 825.758,1062.07C825.785,1064.22 825.118,1064.62 823.131,1064.62ZM1065.71,1064.6C1019.37,1064.55 973.029,1064.55 926.689,1064.61C924.697,1064.62 924.207,1064.06 924.204,1062.13C924.164,1044.16 923.385,1026.23 921.488,1008.36C920.695,1000.87 919.973,993.363 918.81,985.929C917.668,978.641 916.396,971.365 915.206,964.085C906.843,912.87 890.583,864.202 868.505,817.371C868.321,816.981 868.059,816.632 867.832,816.263C864.1,807.48 859.612,799.062 854.977,790.743C782.105,659.989 675.251,569.454 533.883,519.953C500.429,508.237 466,500.312 430.902,495.419C423.772,494.425 416.568,493.747 409.396,492.98C402.379,492.228 395.343,491.589 388.32,491.106C383.494,490.775 378.62,490.493 373.759,490.353C366.176,490.13 358.592,489.638 350.996,489.597C349.698,489.59 349.299,489.043 349.385,487.857C349.436,487.161 349.391,486.457 349.391,485.755C349.393,452.379 349.397,419.004 349.393,385.626C349.392,384.491 349.31,383.356 349.266,382.224C349.297,370.921 349.378,359.622 349.311,348.323C349.299,346.329 349.856,345.827 351.811,345.881C358.375,346.061 364.945,346.04 371.513,346.096C376.663,346.375 381.812,346.672 386.963,346.937C478.38,351.663 565.71,373.07 648.942,411.166C660.322,416.375 671.518,421.97 682.612,427.758C730.746,452.87 775.346,483.213 816.577,518.515C856.181,552.422 891.708,590.164 923.089,631.809C941.737,656.555 958.833,682.322 974.144,709.266C974.355,709.635 974.664,709.95 974.926,710.289C980.874,721.388 986.97,732.406 992.589,743.682C1020.13,798.922 1040.25,856.732 1052.85,917.162C1056.37,934.043 1059.36,951.017 1061.55,968.117C1062.89,978.55 1064.11,989.001 1064.95,999.5C1065.78,1009.93 1066.54,1020.36 1067.07,1030.81C1067.6,1041.31 1067.86,1051.8 1068.05,1062.3C1068.09,1064.2 1067.5,1064.6 1065.71,1064.6Z" style="fill:rgb(192,49,18);fill-rule:nonzero;"/>
    </g>
</svg>
